<svg width="103" height="100" viewBox="0 0 103 100" fill="none" xmlns="http://www.w3.org/2000/svg">
    <rect x="1.5" y="1.5" width="97" height="97" fill="black" stroke="#07C3F2" stroke-width="3"/>
    <rect x="11" y="76" width="39" height="4" fill="white"/>
    <path d="M24.27 54.605C19.65 54.605 16.02 52.955 13.38 49.655C10.7767 46.3183 9.475 41.4417 9.475 35.025C9.475 30.845 10.2083 27.2883 11.675 24.355C13.1417 21.4217 15.085 19.2217 17.505 17.755C19.925 16.2517 22.5467 15.5 25.37 15.5C27.7533 15.5 29.7517 15.83 31.365 16.49C32.9783 17.15 34.5733 18.2133 36.15 19.68L33.29 22.65C32.1167 21.5867 30.8883 20.7983 29.605 20.285C28.3583 19.7717 26.9467 19.515 25.37 19.515C22.29 19.515 19.7233 20.7433 17.67 23.2C15.6167 25.6567 14.59 29.5983 14.59 35.025C14.59 40.415 15.415 44.3567 17.065 46.85C18.7517 49.3433 21.2817 50.59 24.655 50.59C27.3317 50.59 29.7333 49.985 31.86 48.775V37.28H24.435L23.885 33.265H36.645V51.305C34.7383 52.3683 32.8133 53.1933 30.87 53.78C28.9633 54.33 26.7633 54.605 24.27 54.605ZM50.9785 11.485C52.0052 11.485 52.8302 11.7967 53.4535 12.42C54.0769 13.0067 54.3885 13.7767 54.3885 14.73C54.3885 15.6833 54.0769 16.4717 53.4535 17.095C52.8302 17.6817 52.0052 17.975 50.9785 17.975C49.9885 17.975 49.1818 17.6817 48.5585 17.095C47.9718 16.4717 47.6785 15.6833 47.6785 14.73C47.6785 13.7767 47.9718 13.0067 48.5585 12.42C49.1818 11.7967 49.9885 11.485 50.9785 11.485ZM54.6635 50.315H62.8035V54H41.1335V50.315H50.0435V28.7H41.4085V25.015H54.6635V50.315ZM90.502 52.515C89.512 53.175 88.302 53.6883 86.872 54.055C85.4787 54.4217 84.0854 54.605 82.692 54.605C79.6487 54.605 77.2654 53.8167 75.542 52.24C73.8187 50.6267 72.957 48.5183 72.957 45.915V28.645H66.302V25.015H72.957V18.47L77.577 17.92V25.015H87.642L87.037 28.645H77.577V45.86C77.577 47.51 78.017 48.7383 78.897 49.545C79.777 50.3517 81.1887 50.755 83.132 50.755C85.112 50.755 86.9637 50.2967 88.687 49.38L90.502 52.515Z" fill="white"/>
</svg>
